<svg width="24" height="24" viewBox="0 0 24 24" fill="none" xmlns="http://www.w3.org/2000/svg">
  <rect width="24" height="24" rx="12" fill="url(#paint0_radial)"/>
  <path d="M12 7.2C9.3 7.2 7.2 9.3 7.2 12C7.2 14.7 9.3 16.8 12 16.8C14.7 16.8 16.8 14.7 16.8 12C16.8 9.3 14.7 7.2 12 7.2ZM12 15.2C10.2 15.2 8.8 13.8 8.8 12C8.8 10.2 10.2 8.8 12 8.8C13.8 8.8 15.2 10.2 15.2 12C15.2 13.8 13.8 15.2 12 15.2Z" fill="white"/>
  <path d="M17.2 8C17.7523 8 18.2 7.55228 18.2 7C18.2 6.44772 17.7523 6 17.2 6C16.6477 6 16.2 6.44772 16.2 7C16.2 7.55228 16.6477 8 17.2 8Z" fill="white"/>
  <defs>
    <radialGradient id="paint0_radial" cx="0" cy="0" r="1" gradientUnits="userSpaceOnUse" gradientTransform="translate(6 18) rotate(-45) scale(24)">
      <stop stop-color="#FFD600"/>
      <stop offset="0.5" stop-color="#FF0069"/>
      <stop offset="1" stop-color="#7638FA"/>
    </radialGradient>
  </defs>
</svg>