<svg width="24" height="24" viewBox="0 0 24 24" fill="none" xmlns="http://www.w3.org/2000/svg">
  <path d="M12 3C6.477 3 2 6.477 2 12C2 17.523 6.477 21 12 21C17.523 21 22 17.523 22 12C22 6.477 17.523 3 12 3Z" fill="#FFE812"/>
  <path d="M12.0001 8.2C8.8001 8.2 6.2001 10.2 6.2001 12.7C6.2001 14.4 7.3001 15.9 8.9001 16.8L8.3001 18.9C8.2001 19.2 8.5001 19.5 8.8001 19.3L11.5001 17.4C11.7001 17.4 11.8001 17.4 12.0001 17.4C15.2001 17.4 17.8001 15.4 17.8001 12.9C17.8001 10.2 15.2001 8.2 12.0001 8.2Z" fill="#381F1F"/>
</svg>