<svg width="24" height="24" viewBox="0 0 24 24" fill="none" xmlns="http://www.w3.org/2000/svg">
  <path d="M12 0C5.373 0 0 5.373 0 12C0 18.627 5.373 24 12 24C18.627 24 24 18.627 24 12C24 5.373 18.627 0 12 0Z" fill="#0077B5"/>
  <path d="M9.8001 7.2001C9.8001 7.9731 9.1731 8.6001 8.4001 8.6001C7.6271 8.6001 7.0001 7.9731 7.0001 7.2001C7.0001 6.4271 7.6271 5.8001 8.4001 5.8001C9.1731 5.8001 9.8001 6.4271 9.8001 7.2001Z" fill="white"/>
  <path d="M7.2001 9.6001H9.6001V16.8001H7.2001V9.6001Z" fill="white"/>
  <path d="M13.2001 9.6001H10.8001V16.8001H13.2001V13.0001C13.2001 11.2001 15.6001 11.0001 15.6001 13.0001V16.8001H18.0001V12.2001C18.0001 8.6001 14.0001 8.8001 13.2001 10.2001V9.6001Z" fill="white"/>
</svg>